<svg width="220" height="33" viewBox="0 0 220 33" fill="none" xmlns="http://www.w3.org/2000/svg">
<g id="Vector">
<path d="M5.2875 32.8125V13.7625L1.25625 16.8667L0 15.2167L19.8708 0L39.7417 15.2167L38.4854 16.8542L34.4542 13.7625V32.8125H5.2875ZM11.5375 21.9167C11.1069 21.9167 10.7319 21.7569 10.4125 21.4375C10.0931 21.1181 9.93333 20.7431 9.93333 20.3125C9.93333 19.8819 10.0931 19.5069 10.4125 19.1875C10.7319 18.8681 11.1069 18.7083 11.5375 18.7083C11.9681 18.7083 12.3431 18.8681 12.6625 19.1875C12.9819 19.5069 13.1417 19.8819 13.1417 20.3125C13.1417 20.7431 12.9819 21.1181 12.6625 21.4375C12.3431 21.7569 11.9681 21.9167 11.5375 21.9167ZM19.8708 21.9167C19.4403 21.9167 19.0653 21.7569 18.7458 21.4375C18.4264 21.1181 18.2667 20.7431 18.2667 20.3125C18.2667 19.8819 18.4264 19.5069 18.7458 19.1875C19.0653 18.8681 19.4403 18.7083 19.8708 18.7083C20.3014 18.7083 20.6764 18.8681 20.9958 19.1875C21.3153 19.5069 21.475 19.8819 21.475 20.3125C21.475 20.7431 21.3153 21.1181 20.9958 21.4375C20.6764 21.7569 20.3014 21.9167 19.8708 21.9167ZM28.2042 21.9167C27.7736 21.9167 27.3986 21.7569 27.0792 21.4375C26.7597 21.1181 26.6 20.7431 26.6 20.3125C26.6 19.8819 26.7597 19.5069 27.0792 19.1875C27.3986 18.8681 27.7736 18.7083 28.2042 18.7083C28.6347 18.7083 29.0097 18.8681 29.3292 19.1875C29.6486 19.5069 29.8083 19.8819 29.8083 20.3125C29.8083 20.7431 29.6486 21.1181 29.3292 21.4375C29.0097 21.7569 28.6347 21.9167 28.2042 21.9167Z" fill="#CDA274"/>
<path d="M206.571 30.0658C204.944 30.0658 203.371 29.7725 201.851 29.1858C200.357 28.5992 199.011 27.7325 197.811 26.5858C196.637 25.4125 195.704 23.9592 195.011 22.2258C194.318 20.4925 193.971 18.4658 193.971 16.1458C193.971 13.8525 194.318 11.8392 195.011 10.1058C195.704 8.3725 196.651 6.9325 197.851 5.78583C199.051 4.6125 200.398 3.7325 201.891 3.14583C203.411 2.5325 204.971 2.22583 206.571 2.22583C208.197 2.22583 209.758 2.51917 211.251 3.10583C212.771 3.66583 214.117 4.5325 215.291 5.70583C216.491 6.8525 217.438 8.30583 218.131 10.0658C218.824 11.7992 219.171 13.8258 219.171 16.1458C219.171 18.4125 218.824 20.4258 218.131 22.1858C217.438 23.9192 216.491 25.3725 215.291 26.5458C214.117 27.6925 212.771 28.5725 211.251 29.1858C209.758 29.7725 208.197 30.0658 206.571 30.0658ZM206.571 29.2258C208.037 29.2258 209.224 28.8392 210.131 28.0658C211.038 27.2658 211.691 25.9192 212.091 24.0258C212.518 22.1058 212.731 19.4792 212.731 16.1458C212.731 12.7858 212.518 10.1592 212.091 8.26583C211.691 6.34583 211.038 4.99917 210.131 4.22583C209.224 3.42583 208.037 3.02583 206.571 3.02583C205.131 3.02583 203.958 3.42583 203.051 4.22583C202.144 4.99917 201.478 6.34583 201.051 8.26583C200.651 10.1592 200.451 12.7858 200.451 16.1458C200.451 19.4792 200.651 22.1058 201.051 24.0258C201.478 25.9192 202.144 27.2658 203.051 28.0658C203.958 28.8392 205.131 29.2258 206.571 29.2258Z" fill="#292F36"/>
<path d="M169.219 29.3458V28.9458L170.539 28.5458C171.019 28.4125 171.366 28.1592 171.579 27.7858C171.793 27.3858 171.899 26.9192 171.899 26.3858V7.14583C171.606 6.50583 171.366 6.02583 171.179 5.70583C171.019 5.38583 170.833 5.11916 170.619 4.90583C170.406 4.66583 170.113 4.3725 169.739 4.02583L169.059 3.34583V2.94583H176.139L189.419 21.0658V5.98583C189.419 5.4525 189.326 4.9725 189.139 4.54583C188.979 4.11916 188.633 3.83916 188.099 3.70583L186.779 3.34583V2.94583H192.499V3.34583L191.419 3.70583C190.939 3.86583 190.646 4.14583 190.539 4.54583C190.433 4.94583 190.379 5.4125 190.379 5.94583V29.4658H188.139L172.859 8.46583V26.3858C172.859 26.9192 172.939 27.3725 173.099 27.7458C173.259 28.1192 173.593 28.3858 174.099 28.5458L175.299 28.9458V29.3458H169.219Z" fill="#292F36"/>
<path d="M155.204 30.0658C153.577 30.0658 152.004 29.7725 150.484 29.1858C148.99 28.5992 147.644 27.7325 146.444 26.5858C145.27 25.4125 144.337 23.9592 143.644 22.2258C142.95 20.4925 142.604 18.4658 142.604 16.1458C142.604 13.8525 142.95 11.8392 143.644 10.1058C144.337 8.3725 145.284 6.9325 146.484 5.78583C147.684 4.6125 149.03 3.7325 150.524 3.14583C152.044 2.5325 153.604 2.22583 155.204 2.22583C156.83 2.22583 158.39 2.51917 159.884 3.10583C161.404 3.66583 162.75 4.5325 163.924 5.70583C165.124 6.8525 166.07 8.30583 166.764 10.0658C167.457 11.7992 167.804 13.8258 167.804 16.1458C167.804 18.4125 167.457 20.4258 166.764 22.1858C166.07 23.9192 165.124 25.3725 163.924 26.5458C162.75 27.6925 161.404 28.5725 159.884 29.1858C158.39 29.7725 156.83 30.0658 155.204 30.0658ZM155.204 29.2258C156.67 29.2258 157.857 28.8392 158.764 28.0658C159.67 27.2658 160.324 25.9192 160.724 24.0258C161.15 22.1058 161.364 19.4792 161.364 16.1458C161.364 12.7858 161.15 10.1592 160.724 8.26583C160.324 6.34583 159.67 4.99917 158.764 4.22583C157.857 3.42583 156.67 3.02583 155.204 3.02583C153.764 3.02583 152.59 3.42583 151.684 4.22583C150.777 4.99917 150.11 6.34583 149.684 8.26583C149.284 10.1592 149.084 12.7858 149.084 16.1458C149.084 19.4792 149.284 22.1058 149.684 24.0258C150.11 25.9192 150.777 27.2658 151.684 28.0658C152.59 28.8392 153.764 29.2258 155.204 29.2258Z" fill="#292F36"/>
<path d="M115.691 29.3458V28.9458L116.491 28.6258C117.025 28.4392 117.371 28.1858 117.531 27.8658C117.718 27.5458 117.811 27.1325 117.811 26.6258V5.70583C117.811 5.1725 117.718 4.74583 117.531 4.42583C117.371 4.10583 117.025 3.8525 116.491 3.66583L115.691 3.34583V2.94583H125.851V3.34583L125.171 3.62583C124.665 3.8125 124.318 4.06583 124.131 4.38583C123.945 4.67916 123.851 5.0925 123.851 5.62583V15.3458H133.411V5.62583C133.411 5.0925 133.318 4.67916 133.131 4.38583C132.971 4.06583 132.625 3.8125 132.091 3.62583L131.371 3.34583V2.94583H141.571V3.34583L140.771 3.66583C140.265 3.8525 139.918 4.10583 139.731 4.42583C139.545 4.74583 139.451 5.1725 139.451 5.70583V26.6258C139.451 27.1325 139.545 27.5458 139.731 27.8658C139.918 28.1858 140.265 28.4392 140.771 28.6258L141.571 28.9458V29.3458H131.371V28.9458L132.091 28.7058C132.625 28.4925 132.971 28.2392 133.131 27.9458C133.318 27.6258 133.411 27.1992 133.411 26.6658V16.1458H123.851V26.6658C123.851 27.6525 124.291 28.3325 125.171 28.7058L125.851 28.9458V29.3458H115.691Z" fill="#292F36"/>
<path d="M94.4415 29.3458V28.9458L95.2815 28.6258C95.8415 28.4125 96.1881 28.1592 96.3215 27.8658C96.4815 27.5458 96.5615 27.1192 96.5615 26.5858V5.70583C96.5615 5.1725 96.4815 4.74583 96.3215 4.42583C96.1615 4.10583 95.8148 3.8525 95.2815 3.66583L94.4415 3.34583V2.94583H104.641V3.34583L103.921 3.66583C103.415 3.8525 103.068 4.11916 102.881 4.46583C102.695 4.78583 102.601 5.2125 102.601 5.74583V28.5458H108.761C109.748 28.5458 110.468 28.3058 110.921 27.8258C111.401 27.3458 111.855 26.6525 112.281 25.7458L113.841 22.3858H114.241L113.881 29.3458H94.4415Z" fill="#292F36"/>
<path d="M72.254 29.3458V28.9458L73.174 28.5858C73.6273 28.3992 73.934 28.1592 74.094 27.8658C74.2806 27.5458 74.374 27.1192 74.374 26.5858V5.70583C74.374 5.1725 74.294 4.75917 74.134 4.46583C74.0006 4.14583 73.6806 3.8925 73.174 3.70583L72.254 3.34583V2.94583H91.414L91.654 9.10583H91.254L89.534 5.34583C89.294 4.86583 89.0406 4.47917 88.774 4.18583C88.5073 3.8925 88.1073 3.74583 87.574 3.74583H80.374V15.3058H84.654C85.1873 15.3058 85.5873 15.1725 85.854 14.9058C86.1473 14.6125 86.4006 14.2258 86.614 13.7458L87.414 12.1458H87.814V19.3458H87.414L86.614 17.6658C86.374 17.1858 86.1206 16.8125 85.854 16.5458C85.5873 16.2525 85.1873 16.1058 84.654 16.1058H80.374V28.5458H88.454C88.9873 28.5458 89.4006 28.4125 89.694 28.1458C89.9873 27.8525 90.2273 27.4525 90.414 26.9458L92.054 23.1858H92.454L92.214 29.3458H72.254Z" fill="#292F36"/>
<path d="M60.1508 30.0658C58.6842 30.0658 57.1908 29.8792 55.6708 29.5058C54.1508 29.1592 52.8842 28.6925 51.8708 28.1058L52.0708 22.6658H52.4708L53.7108 25.2658C54.0842 26.0125 54.4842 26.6792 54.9108 27.2658C55.3375 27.8258 55.9242 28.2658 56.6708 28.5858C57.2042 28.8525 57.7108 29.0392 58.1908 29.1458C58.6975 29.2258 59.2575 29.2658 59.8708 29.2658C61.4975 29.2658 62.7775 28.8258 63.7108 27.9458C64.6708 27.0658 65.1508 25.9325 65.1508 24.5458C65.1508 23.2392 64.8308 22.2258 64.1908 21.5058C63.5508 20.7592 62.5242 20.0392 61.1108 19.3458L59.4708 18.6258C57.1775 17.6125 55.3775 16.4525 54.0708 15.1458C52.7908 13.8125 52.1508 12.0525 52.1508 9.86583C52.1508 8.2925 52.5508 6.9325 53.3508 5.78583C54.1775 4.63917 55.3108 3.75917 56.7508 3.14583C58.2175 2.5325 59.9242 2.22583 61.8708 2.22583C63.2842 2.22583 64.6175 2.4125 65.8708 2.78583C67.1508 3.15916 68.2575 3.66583 69.1908 4.30583L68.9508 9.10583H68.5508L66.9108 6.10583C66.4575 5.1725 66.0042 4.51916 65.5508 4.14583C65.0975 3.74583 64.5775 3.46583 63.9908 3.30583C63.6442 3.19917 63.3242 3.1325 63.0308 3.10583C62.7375 3.0525 62.3642 3.02583 61.9108 3.02583C60.5508 3.02583 59.4042 3.42583 58.4708 4.22583C57.5375 4.99917 57.0708 6.0525 57.0708 7.38583C57.0708 8.74583 57.4308 9.83917 58.1508 10.6658C58.8708 11.4658 59.9242 12.1858 61.3108 12.8258L63.1508 13.6258C65.7108 14.7458 67.5508 15.9458 68.6708 17.2258C69.7908 18.4792 70.3508 20.1058 70.3508 22.1058C70.3508 24.4525 69.4575 26.3725 67.6708 27.8658C65.9108 29.3325 63.4042 30.0658 60.1508 30.0658Z" fill="#292F36"/>
</g>
</svg>
